%FSLAX44Y44*%
%MOMM*%
G71*
G01*
G75*
%ADD10C,0.1000*%
%ADD11C,0.1270*%
%ADD12C,0.1693*%
D10*
X262700Y120000D02*
G03*
X302300Y120000I19800J-15000D01*
G01*
X262700Y182500D02*
G03*
X302300Y182500I19800J-15000D01*
G01*
X327700D02*
G03*
X367300Y182500I19800J-15000D01*
G01*
X327700Y120000D02*
G03*
X367300Y120000I19800J-15000D01*
G01*
X262700Y120000D02*
X302300D01*
X262700Y182500D02*
X302300D01*
X327700Y182500D02*
X367300D01*
X327700Y120000D02*
X367300D01*
X282500Y100000D02*
Y110000D01*
X277500Y105000D02*
X287500D01*
X282500Y162500D02*
Y172500D01*
X277500Y167500D02*
X287500D01*
X347500Y162500D02*
Y172500D01*
X342500Y167500D02*
X352500D01*
X347500Y100000D02*
Y110000D01*
X342500Y105000D02*
X352500D01*
D11*
X328250Y475600D02*
X336750D01*
X332500Y471350D02*
Y479850D01*
X328250Y399400D02*
X336750D01*
X332500Y395150D02*
Y403650D01*
X395750Y418100D02*
X404250D01*
X400000Y413850D02*
Y422350D01*
X395750Y341900D02*
X404250D01*
X400000Y337650D02*
Y346150D01*
X418250Y418100D02*
X426750D01*
X422500Y413850D02*
Y422350D01*
X418250Y341900D02*
X426750D01*
X422500Y337650D02*
Y346150D01*
X445750Y418100D02*
X454250D01*
X450000Y413850D02*
Y422350D01*
X445750Y341900D02*
X454250D01*
X450000Y337650D02*
Y346150D01*
X238250Y475600D02*
X246750D01*
X242500Y471350D02*
Y479850D01*
X238250Y399400D02*
X246750D01*
X242500Y395150D02*
Y403650D01*
X263250Y234400D02*
X271750D01*
X267500Y230150D02*
Y238650D01*
X263250Y310600D02*
X271750D01*
X267500Y306350D02*
Y314850D01*
X293250Y234400D02*
X301750D01*
X297500Y230150D02*
Y238650D01*
X293250Y310600D02*
X301750D01*
X297500Y306350D02*
Y314850D01*
X268250Y475600D02*
X276750D01*
X272500Y471350D02*
Y479850D01*
X268250Y399400D02*
X276750D01*
X272500Y395150D02*
Y403650D01*
X298250Y475600D02*
X306750D01*
X302500Y471350D02*
Y479850D01*
X298250Y399400D02*
X306750D01*
X302500Y395150D02*
Y403650D01*
X265300Y105000D02*
X274300D01*
X269800Y100500D02*
Y109500D01*
X278000Y105000D02*
X287000D01*
X282500Y100500D02*
Y109500D01*
X290700Y105000D02*
X299700D01*
X295200Y100500D02*
Y109500D01*
X155500Y112500D02*
X164500D01*
X160000Y108000D02*
Y117000D01*
X155500Y137900D02*
X164500D01*
X160000Y133400D02*
Y142400D01*
X155500Y163300D02*
X164500D01*
X160000Y158800D02*
Y167800D01*
X470500Y90000D02*
X479500D01*
X475000Y85500D02*
Y94500D01*
X470500Y115400D02*
X479500D01*
X475000Y110900D02*
Y119900D01*
X470500Y140800D02*
X479500D01*
X475000Y136300D02*
Y145300D01*
X200750Y234400D02*
X209250D01*
X205000Y230150D02*
Y238650D01*
X200750Y310600D02*
X209250D01*
X205000Y306350D02*
Y314850D01*
X230750Y234400D02*
X239250D01*
X235000Y230150D02*
Y238650D01*
X230750Y310600D02*
X239250D01*
X235000Y306350D02*
Y314850D01*
X265300Y167500D02*
X274300D01*
X269800Y163000D02*
Y172000D01*
X278000Y167500D02*
X287000D01*
X282500Y163000D02*
Y172000D01*
X290700Y167500D02*
X299700D01*
X295200Y163000D02*
Y172000D01*
X330300Y167500D02*
X339300D01*
X334800Y163000D02*
Y172000D01*
X343000Y167500D02*
X352000D01*
X347500Y163000D02*
Y172000D01*
X355700Y167500D02*
X364700D01*
X360200Y163000D02*
Y172000D01*
X360400Y355000D02*
X369400D01*
X364900Y350500D02*
Y359500D01*
X335000Y355000D02*
X344000D01*
X339500Y350500D02*
Y359500D01*
X309600Y355000D02*
X318600D01*
X314100Y350500D02*
Y359500D01*
X284200Y355000D02*
X293200D01*
X288700Y350500D02*
Y359500D01*
X233400Y355000D02*
X242400D01*
X237900Y350500D02*
Y359500D01*
X208000Y355000D02*
X217000D01*
X212500Y350500D02*
Y359500D01*
X258800Y355000D02*
X267800D01*
X263300Y350500D02*
Y359500D01*
X396800Y445000D02*
X405800D01*
X401300Y440500D02*
Y449500D01*
X422200Y445000D02*
X431200D01*
X426700Y440500D02*
Y449500D01*
X447600Y445000D02*
X456600D01*
X452100Y440500D02*
Y449500D01*
X473000Y445000D02*
X482000D01*
X477500Y440500D02*
Y449500D01*
X361260Y508000D02*
X370260D01*
X365760Y503500D02*
Y512500D01*
X183460Y508000D02*
X192460D01*
X187960Y503500D02*
Y512500D01*
X208860Y508000D02*
X217860D01*
X213360Y503500D02*
Y512500D01*
X234260Y508000D02*
X243260D01*
X238760Y503500D02*
Y512500D01*
X259660Y508000D02*
X268660D01*
X264160Y503500D02*
Y512500D01*
X285060Y508000D02*
X294060D01*
X289560Y503500D02*
Y512500D01*
X310460Y508000D02*
X319460D01*
X314960Y503500D02*
Y512500D01*
X335860Y508000D02*
X344860D01*
X340360Y503500D02*
Y512500D01*
X386660Y508000D02*
X395660D01*
X391160Y503500D02*
Y512500D01*
X412060Y508000D02*
X421060D01*
X416560Y503500D02*
Y512500D01*
X630500Y25400D02*
X639500D01*
X635000Y20900D02*
Y29900D01*
X605100Y25400D02*
X614100D01*
X609600Y20900D02*
Y29900D01*
X579700Y25400D02*
X588700D01*
X584200Y20900D02*
Y29900D01*
X554300Y25400D02*
X563300D01*
X558800Y20900D02*
Y29900D01*
X528900Y25400D02*
X537900D01*
X533400Y20900D02*
Y29900D01*
X503500Y25400D02*
X512500D01*
X508000Y20900D02*
Y29900D01*
X452700Y25400D02*
X461700D01*
X457200Y20900D02*
Y29900D01*
X427300Y25400D02*
X436300D01*
X431800Y20900D02*
Y29900D01*
X401900Y25400D02*
X410900D01*
X406400Y20900D02*
Y29900D01*
X376500Y25400D02*
X385500D01*
X381000Y20900D02*
Y29900D01*
X351100Y25400D02*
X360100D01*
X355600Y20900D02*
Y29900D01*
X325700Y25400D02*
X334700D01*
X330200Y20900D02*
Y29900D01*
X300300Y25400D02*
X309300D01*
X304800Y20900D02*
Y29900D01*
X274900Y25400D02*
X283900D01*
X279400Y20900D02*
Y29900D01*
X630500Y508000D02*
X639500D01*
X635000Y503500D02*
Y512500D01*
X605100Y508000D02*
X614100D01*
X609600Y503500D02*
Y512500D01*
X579700Y508000D02*
X588700D01*
X584200Y503500D02*
Y512500D01*
X554300Y508000D02*
X563300D01*
X558800Y503500D02*
Y512500D01*
X528900Y508000D02*
X537900D01*
X533400Y503500D02*
Y512500D01*
X503500Y508000D02*
X512500D01*
X508000Y503500D02*
Y512500D01*
X478100Y508000D02*
X487100D01*
X482600Y503500D02*
Y512500D01*
X452700Y508000D02*
X461700D01*
X457200Y503500D02*
Y512500D01*
X554400Y385300D02*
X560400D01*
X557400Y382300D02*
Y388300D01*
X554400Y359900D02*
X560400D01*
X557400Y356900D02*
Y362900D01*
X554400Y334500D02*
X560400D01*
X557400Y331500D02*
Y337500D01*
X554400Y309100D02*
X560400D01*
X557400Y306100D02*
Y312100D01*
X554400Y283700D02*
X560400D01*
X557400Y280700D02*
Y286700D01*
X554400Y258300D02*
X560400D01*
X557400Y255300D02*
Y261300D01*
X554400Y232900D02*
X560400D01*
X557400Y229900D02*
Y235900D01*
X554400Y207500D02*
X560400D01*
X557400Y204500D02*
Y210500D01*
X637000Y385300D02*
X643000D01*
X640000Y382300D02*
Y388300D01*
X637000Y359900D02*
X643000D01*
X640000Y356900D02*
Y362900D01*
X637000Y334500D02*
X643000D01*
X640000Y331500D02*
Y337500D01*
X637000Y309100D02*
X643000D01*
X640000Y306100D02*
Y312100D01*
X637000Y283700D02*
X643000D01*
X640000Y280700D02*
Y286700D01*
X637000Y258300D02*
X643000D01*
X640000Y255300D02*
Y261300D01*
X637000Y232900D02*
X643000D01*
X640000Y229900D02*
Y235900D01*
X637000Y207500D02*
X643000D01*
X640000Y204500D02*
Y210500D01*
X481710Y291470D02*
X489330D01*
X485520Y287660D02*
Y295280D01*
X481710Y266070D02*
X489330D01*
X485520Y262260D02*
Y269880D01*
X481710Y240670D02*
X489330D01*
X485520Y236860D02*
Y244480D01*
X481710Y215270D02*
X489330D01*
X485520Y211460D02*
Y219080D01*
X419500Y132900D02*
X425500D01*
X422500Y129900D02*
Y135900D01*
X419500Y107500D02*
X425500D01*
X422500Y104500D02*
Y110500D01*
X207000Y129600D02*
X213000D01*
X210000Y126600D02*
Y132600D01*
X207000Y155000D02*
X213000D01*
X210000Y152000D02*
Y158000D01*
X330300Y105000D02*
X339300D01*
X334800Y100500D02*
Y109500D01*
X343000Y105000D02*
X352000D01*
X347500Y100500D02*
Y109500D01*
X355700Y105000D02*
X364700D01*
X360200Y100500D02*
Y109500D01*
X559720Y130520D02*
X567340D01*
X563530Y126710D02*
Y134330D01*
X585120Y130520D02*
X592740D01*
X588930Y126710D02*
Y134330D01*
X610520Y130520D02*
X618140D01*
X614330Y126710D02*
Y134330D01*
X635920Y130520D02*
X643540D01*
X639730Y126710D02*
Y134330D01*
M02*
